<?xml version="1.0" standalone="no"?>
<!DOCTYPE svg PUBLIC "-//W3C//DTD SVG 20010904//EN"
 "http://www.w3.org/TR/2001/REC-SVG-20010904/DTD/svg10.dtd">
<svg version="1.0" xmlns="http://www.w3.org/2000/svg"
 width="391.000000pt" height="99.000000pt" viewBox="0 0 391.000000 99.000000"
 preserveAspectRatio="xMidYMid meet">
<metadata>
Created by potrace 1.10, written by Peter Selinger 2001-2011
</metadata>
<g transform="translate(0.000000,99.000000) scale(0.100000,-0.100000)"
fill="#000000" stroke="none">
<path d="M25 981 l30 -6 3 -458 2 -457 135 0 135 0 0 -30 0 -30 360 0 360 0
-9 23 c-5 12 -90 204 -190 427 l-180 405 -15 -35 c-8 -19 -41 -97 -75 -172
l-60 -138 95 0 c94 0 94 0 94 -25 l0 -25 -136 0 c-105 0 -135 3 -131 13 39 99
223 507 228 507 3 0 102 -214 219 -477 199 -447 212 -477 194 -490 -15 -11 87
-13 629 -13 l647 0 0 203 0 202 123 0 c118 0 125 1 189 33 68 33 101 70 117
130 5 20 15 28 34 30 31 4 34 -8 15 -69 -34 -116 -176 -188 -370 -189 l-48 0
0 -170 0 -170 270 0 270 0 0 280 0 280 210 0 210 0 0 -30 0 -30 -180 0 -180 0
0 -220 0 -220 320 0 320 0 0 -30 0 -30 100 0 100 0 0 489 0 490 28 4 c15 2
-290 4 -678 4 -388 1 -684 -3 -658 -7 63 -11 144 -50 193 -93 45 -39 100 -130
91 -152 -11 -29 -45 -16 -66 25 -29 57 -85 109 -149 139 -48 22 -71 26 -161
27 -105 1 -105 1 -108 27 -3 23 1 26 35 30 21 2 -58 4 -174 5 -117 1 -213 -1
-213 -5 0 -4 48 -120 106 -257 100 -235 105 -250 88 -263 -10 -7 -22 -12 -28
-10 -8 3 -229 509 -223 513 1 0 11 6 22 12 15 9 -237 11 -975 11 -547 -1 -982
-4 -965 -8z m1457 -363 l166 -361 116 232 c64 127 120 231 124 231 5 0 17 -6
28 -14 18 -14 14 -25 -121 -295 -77 -155 -143 -280 -148 -278 -4 1 -79 157
-167 347 -87 190 -162 351 -167 357 -5 8 -44 -59 -108 -187 -55 -110 -103
-200 -106 -200 -3 0 -14 6 -25 14 -18 14 -14 24 106 265 69 138 127 251 130
251 3 0 80 -163 172 -362z m2178 337 l0 -25 -350 0 -350 0 0 25 0 25 350 0
350 0 0 -25z"/>
</g>
</svg>
